<svg xmlns="http://www.w3.org/2000/svg" viewBox="0 0 1340 980" width="1340" height="980" font-family="Segoe Print, Comic Sans MS, cursive"><rect x="0" y="0" width="1340" height="980" fill="#f5f7fb"></rect><text x="670" y="50" font-size="32" fill="#6c4fc4" text-anchor="middle" font-weight="bold">Med-AI ~ Hybrid RAG Architecture</text><g><path d="M370.4391089037641 66.00603363248415 C524.278120820192 72.09805688066561, 677.1156670353135 72.41781863312067, 969.5414223249444 65.88987658645445 M369.69109375466235 66.04606678529476 C588.6209736781956 61.73419623933574, 808.0770151850792 62.128861195304786, 970.6262358351236 66.46339426866018" stroke="#0f8f78" stroke-width="3" fill="none"></path></g><text x="670" y="92" font-size="15.5" fill="#1e2430" text-anchor="middle" font-weight="normal">Next.js + FastAPI + MongoDB + Pinecone (dense) + BM25 (sparse) + Groq</text><g transform="rotate(-0.4 650 159)"><g><path d="M501.32342050291794 127.84072576082814 L797.8102432760408 128.25030716652054 L799.0814854054317 187.09058788453666 L502.2666877581705 189.65326982667034" stroke="none" stroke-width="0" fill="#dbe7fb"></path><path d="M498.4056659569352 128.6896853954415 C587.4648274154496 131.08180961820224, 676.5187915297608 132.09829669248023, 798.5675131665407 128.4616135043168 M499.66333697424864 130.51147478231997 C615.7868161609504 131.89744540201883, 731.8121012066953 130.61936181046522, 800.8781385118593 129.165949734483 M798.1224676155099 131.87174633509005 C798.4897869984342 142.54370932910717, 799.9671062922798 159.13778425619077, 798.6019004760134 187.2158759101151 M800.6305708808759 129.69556703975022 C799.59583098255 143.32408708167398, 798.8624074426499 157.63291149888684, 799.6104683610305 187.2797375057773 M800.3183511942166 187.8078756976021 C696.020136429324 184.90179875179697, 592.228552785856 187.3951035921878, 498.3111134062623 187.5915668979409 M799.4107905671025 187.93433337630012 C685.0397082954723 185.06908924640447, 571.1336740851406 185.58456041393015, 499.72199255378337 188.6373598165182 M501.8777484627354 186.65032806076803 C500.6600169346075 171.32477808448115, 500.6281878143811 150.80752575923853, 499.4668915159677 131.920956052172 M500.63343363505976 188.81481577378094 C500.67462770245703 171.44937855697194, 501.02320607132816 157.10331819935516, 499.33289218209774 128.87556848250617" stroke="#1e2430" stroke-width="2" fill="none"></path></g></g><g><text x="650" y="159" font-size="14.5" fill="#1e2430" text-anchor="middle" font-weight="normal" transform="rotate(-0.4 650 159)">User -- Browser</text></g><g transform="rotate(0.3 650 255)"><g><path d="M481.41554105877805 226.85279020123576 L819.7578014494427 224.50152051304204 L821.0855039706996 284.9120250636723 L481.4544136387845 287.26013792380786" stroke="none" stroke-width="0" fill="#e8e1fa"></path><path d="M479.45189209866857 226.07958479590494 C600.7487714893465 221.88772800861312, 722.5571399000484 222.2283085756246, 820.9906562042303 225.31339896395488 M479.71944919302126 225.57289580796106 C615.0517606563146 224.58465728358354, 748.893303626478 224.2718509678529, 820.5793326104551 225.12708041180358 M822.3141438108182 227.21548722359347 C821.6953332786826 240.19772255158088, 820.6281241391582 249.1564731958857, 822.2665185182732 285.1333651301312 M819.4021406883048 223.855699309764 C819.039040567163 243.3105190779993, 820.4910515778807 260.36885988910376, 821.0902433719382 284.76639672129915 M819.8677021066625 286.07206228761066 C699.7683824135113 287.7599635153034, 581.9919252220692 288.6447688633799, 479.18708501548195 285.3989342772746 M820.0421886684658 285.70444670060647 C731.2791983729351 284.81989567607684, 641.762449999662 284.5936682156827, 479.6496326633248 284.7881169218605 M479.2202154101061 286.1717001946303 C480.4851694138816 267.1240733230848, 479.736650570695 253.22257662412778, 481.92265949809575 223.3918205525862 M479.45853315905885 285.84029486562116 C479.2651156911156 266.87630762727974, 479.2967427132807 251.2039276731852, 479.39743073178767 225.5397237611864" stroke="#1e2430" stroke-width="2" fill="none"></path></g></g><g><text x="650" y="244.75" font-size="14.5" fill="#1e2430" text-anchor="middle" font-weight="normal" transform="rotate(0.3 650 244.75)">Next.js Frontend</text><text x="650" y="265.25" font-size="14.5" fill="#1e2430" text-anchor="middle" font-weight="normal" transform="rotate(0.3 650 265.25)">Chat UI - localhost:3000</text></g><g transform="rotate(-0.3 650 352)"><g><path d="M470.0817193903943 321.387290930989 L828.398839346117 321.7399582085986 L829.7499918924344 382.1699347710749 L467.6994554496536 382.9138457705312" stroke="none" stroke-width="0" fill="#e8e1fa"></path><path d="M469.061003870576 322.354056458184 C563.9701596843761 320.49589112980874, 658.5776359176932 322.78313329402147, 830.0336511082517 321.78889974232175 M470.0940192767987 322.70547989278174 C607.8892205188016 324.2871133661869, 746.8199767157532 323.6943549513499, 829.8757757921769 321.5182391264704 M828.4635065208356 323.23107325286134 C830.2989248204884 338.81361068747736, 830.9455915007294 356.5551860098356, 831.8095161686588 381.8415207155351 M830.7517483662742 321.0040162840159 C830.5912444582937 342.25502379834853, 831.0348505718159 360.9580798334259, 828.9652551899433 383.10825919295644 M828.5518615337774 381.0717592943401 C685.8627653019898 380.64888126813565, 543.6349054163056 382.4980544696575, 468.8723998070156 380.709177932595 M829.9867260500565 381.24059559435165 C744.6587614891457 384.00680276435213, 660.0917121835395 383.90158841930435, 469.9260166460813 382.0795790273366 M469.7668185768769 383.85982147456934 C470.9446136898226 356.7574166144396, 472.0773619850243 338.3488616373305, 470.13752795326167 321.0337645957627 M470.27766276415286 381.45846530085464 C470.0053426369575 359.04253045238744, 470.0215169385846 337.6858950376176, 470.9918376362937 322.1669754694403" stroke="#1e2430" stroke-width="2" fill="none"></path></g></g><g><text x="650" y="341.75" font-size="14.5" fill="#1e2430" text-anchor="middle" font-weight="normal" transform="rotate(-0.3 650 341.75)">FastAPI Backend</text><text x="650" y="362.25" font-size="14.5" fill="#1e2430" text-anchor="middle" font-weight="normal" transform="rotate(-0.3 650 362.25)">POST /rag - localhost:8000</text></g><g><g><path d="M650.5495111992097 187.00860546618998 C649.2819877723006 195.84501645396023, 650.9364809978158 205.4811261820228, 650.5195831405518 223.02498868126708 M650.9275767158742 189.0985797016167 C649.9633645641208 199.7241802905316, 651.2536805185564 211.94624134683895, 650.4120024939673 225.28264213050073" stroke="#2f5fae" stroke-width="2" fill="none"></path></g><g><path d="M 650 225 L 645.2153791247765 215.09508187412055 L 654.7846208752235 215.09508187412055 Z" fill="#2f5fae" stroke="#2f5fae"></path></g><text x="650" y="200.5" font-size="13" fill="#2f5fae" text-anchor="middle" font-weight="normal">asks a question</text></g><g><g><path d="M649.2384022736114 283.23042146364463 C651.3417756196098 294.63242150230417, 651.4274184477684 309.71194998006166, 650.7152124871682 324.06568157866434 M648.9209142239074 284.0331371002218 C649.5332091996866 294.53062403061546, 648.8484814432711 303.56937051528513, 650.5798984080803 322.32737551463936" stroke="#6c4fc4" stroke-width="2" fill="none"></path></g><g><path d="M 650 322 L 645.2153791247765 312.0950818741206 L 654.7846208752235 312.0950818741206 Z" fill="#6c4fc4" stroke="#6c4fc4"></path></g><text x="650" y="297.5" font-size="13" fill="#6c4fc4" text-anchor="middle" font-weight="normal">{ question }</text></g><g transform="rotate(0.4 430 463)"><g><path d="M281.74808400288526 429.6009930676134 L581.5111067214945 429.80907925366085 L580.5814738622433 497.3195679710016 L277.8134487762224 495.29992231343726" stroke="none" stroke-width="0" fill="#d7f5ec"></path><path d="M281.7543358496328 431.0381501391496 C384.03982967429516 428.8849243220396, 487.30165115324945 427.4603485644463, 580.7534037968944 430.6703055046286 M279.47057308372155 430.71310079273934 C397.5815171819969 428.0990531133687, 516.736332368236 427.16157189781177, 580.8157786156831 429.771969161741 M582.1277638432923 430.89609488891426 C581.6191417839322 450.6974563447585, 578.3499295115529 472.35040111207854, 578.216630442437 496.55825846941565 M580.8534218528073 429.1276681751704 C581.7410390367687 446.7546079750139, 580.0851344891631 462.16361556081085, 579.6944726611532 496.80710612779717 M580.8142829839566 496.81271681503205 C489.5666634733924 496.52505240780056, 403.05435159991396 496.56311360990713, 281.5080936462346 495.57660980171613 M579.232144356852 496.28048780230336 C463.5145675430731 494.6203647026868, 347.8826048362909 493.86775474145315, 279.17217439737965 496.61190949301954 M281.02965444900565 494.93415466166294 C278.2233685100511 478.324382077361, 282.15099088276287 457.85632611079046, 280.2237018119933 428.8437158424196 M279.17734614619195 497.11067551195356 C278.5040823909947 475.5788161466919, 280.5987136759458 456.4920331370375, 280.1023275593663 429.84765830532274" stroke="#1e2430" stroke-width="2" fill="none"></path></g></g><g><text x="430" y="452.75" font-size="14.5" fill="#1e2430" text-anchor="middle" font-weight="normal" transform="rotate(0.4 430 452.75)">Dense Search</text><text x="430" y="473.25" font-size="14.5" fill="#1e2430" text-anchor="middle" font-weight="normal" transform="rotate(0.4 430 473.25)">Pinecone + gte-small embeddings</text></g><g transform="rotate(-0.4 890 463)"><g><path d="M738.9780606326689 427.6249762265165 L1041.5113992289314 427.68131876050506 L1039.7855781324954 497.1681824532412 L740.4803167296612 494.622432938241" stroke="none" stroke-width="0" fill="#d7f5ec"></path><path d="M739.6761931370161 431.71851320831064 C827.8728950796883 428.5729339686807, 910.661840307353 430.0656587403262, 1039.9448500334317 429.7724955609737 M739.7980721895887 430.0624832523681 C845.9406990610264 428.32546938511626, 952.2729192031404 427.86001591462804, 1040.4850518281805 430.13009877471706 M1041.2547371500762 432.34794716419793 C1041.4950852330358 451.03751587047316, 1042.017753960072 474.8591596612162, 1038.798181455259 497.5456274777372 M1038.8947550662538 429.855098787241 C1038.7752120052628 447.4201225201641, 1040.0207358194107 463.75752928668135, 1040.4623889531163 496.229985851544 M1039.808393495441 495.8614300965369 C920.5425651132167 497.8998856251351, 800.9108294362078 496.21130265290174, 741.1408040877271 497.09316390468285 M1040.222036967647 496.4717612794052 C967.3608025198922 495.9561344264299, 895.0971145191784 497.2632754831974, 739.1214709723358 496.4273550718811 M741.6037818109296 495.082947895618 C738.9710871798349 478.5046390972742, 741.669151742315 463.70313419485706, 741.0743601064539 430.32545636422304 M740.1507351288861 496.5431657563096 C741.3935804318589 480.3061789946793, 740.0315952021721 466.0240582800244, 740.2745610926709 429.6131723918025" stroke="#1e2430" stroke-width="2" fill="none"></path></g></g><g><text x="890" y="452.75" font-size="14.5" fill="#1e2430" text-anchor="middle" font-weight="normal" transform="rotate(-0.4 890 452.75)">Sparse Search</text><text x="890" y="473.25" font-size="14.5" fill="#1e2430" text-anchor="middle" font-weight="normal" transform="rotate(-0.4 890 473.25)">BM25 (rank_bm25)</text></g><g><g><path d="M599.7736007201937 383.90938662701046 C555.303768759367 398.14042182781026, 507.15009762099635 412.9097266050771, 459.8006227005072 429.51689589140153 M601.0113230478584 381.8438249423899 C549.1243845614085 400.1370452437597, 494.6934231774135 418.22278725165927, 460.0425271505613 429.1005545536566" stroke="#0f8f78" stroke-width="2" fill="none"></path></g><g><path d="M 460 430 L 467.81774821359727 422.26160140153036 L 470.9212860786071 431.31358684114247 Z" fill="#0f8f78" stroke="#0f8f78"></path></g><text x="530" y="400" font-size="13" fill="#0f8f78" text-anchor="middle" font-weight="normal">dense_search(q)</text></g><g><g><path d="M700.412714191782 383.19051568357565 C750.1273674096217 396.23272102986317, 796.7264729569382 411.12723369566953, 860.9398425510004 430.86802865888984 M700.7088670800426 382.1977745631115 C733.4392749920949 392.75292819739155, 766.5706714028379 403.0125807926563, 859.5759098612392 430.4009438322331" stroke="#0f8f78" stroke-width="2" fill="none"></path></g><g><path d="M 860 430 L 849.1379583743371 431.7366783589277 L 851.8876597578013 422.57100708071385 Z" fill="#0f8f78" stroke="#0f8f78"></path></g><text x="780" y="400" font-size="13" fill="#0f8f78" text-anchor="middle" font-weight="normal">sparse_search(q)</text></g><g transform="rotate(0.3 650 574)"><g><path d="M490.3830466167235 545.521299774212 L807.9335814801044 544.3737095093982 L808.0404803394557 603.6794862203698 L488.8190965054351 604.0969887537925" stroke="none" stroke-width="0" fill="#eceef4"></path><path d="M489.1925247047017 545.8272334037339 C592.1656514643437 547.3001998916692, 697.2555730797764 547.4657083255438, 810.7988309326365 546.0924344508558 M489.3444815329676 546.1939641036419 C599.1522161984946 544.5865141188661, 707.7057060586853 544.28639031215, 809.8890236749706 546.7323827996167 M812.1664324027487 548.3904074582546 C808.4781561453656 560.8362465168082, 807.5934397910423 580.504250850649, 812.2285572708913 599.7403572134046 M810.528835614541 546.6650567942609 C808.807256347282 560.2627623058678, 810.4881488009975 574.9971076325805, 810.1867975244174 601.7456093182813 M810.6905366516412 602.6365636318326 C735.1809830008568 599.9135480639216, 658.3769082616061 599.0322643247853, 489.60807190915835 601.2221208635002 M810.1574434297486 602.5824554235074 C690.7849405579557 600.7192709953068, 570.7345487348503 600.2145362114292, 490.2313413160354 602.6027624218028 M489.29780381207075 602.7981596350897 C490.42565269455764 588.6357259525217, 489.76224332396794 576.5832080329715, 492.258611774415 547.3051784098465 M491.17568562436276 601.7796827515324 C489.68818573725855 583.8187724862482, 490.17064069063076 564.8604897264726, 490.3497822859216 545.4962098169232" stroke="#1e2430" stroke-width="2" fill="none"></path></g></g><g><text x="650" y="574" font-size="14.5" fill="#1e2430" text-anchor="middle" font-weight="normal" transform="rotate(0.3 650 574)">Reciprocal Rank Fusion (RRF)</text></g><g><g><path d="M431.1403828108784 496.45692300792996 C481.5701621070509 507.2889826569236, 533.8275699119202 523.5537923256777, 611.9647088678121 545.3006999667977 M430.71643050050494 495.7793285185721 C467.9165834441263 505.80245097370977, 503.634061305627 517.7452094696448, 609.2342831180864 546.8330327986843" stroke="#0f8f78" stroke-width="2" fill="none"></path></g><g><path d="M 610 546 L 599.1758595745005 547.9590773463718 L 601.7370084100934 538.7389415382376 Z" fill="#0f8f78" stroke="#0f8f78"></path></g></g><g><g><path d="M891.8637611937509 494.1949413242458 C815.3299038699164 510.4487632037544, 743.6965170514864 531.4733635144604, 688.2311418613378 544.6512720375097 M890.3610887688125 495.14914940479827 C850.153238462445 505.15718433986825, 809.2337770089538 514.9258324003472, 689.7129006135257 546.6487756329109" stroke="#0f8f78" stroke-width="2" fill="none"></path></g><g><path d="M 690 546 L 698.4487410198412 538.9559404332692 L 700.7696230489097 548.2394685495431 Z" fill="#0f8f78" stroke="#0f8f78"></path></g></g><g transform="rotate(-0.3 650 668)"><g><path d="M469.98646702144515 637.6950202752697 L828.9932519080425 638.845404463716 L831.6973189293707 696.2352659681013 L471.503555407141 696.8356973294505" stroke="none" stroke-width="0" fill="#eceef4"></path><path d="M470.7043351397416 638.950387016196 C560.3421571738983 637.1062045036389, 652.3320029525279 638.450623440083, 828.5351345966509 641.3132320343633 M470.2287313078065 640.593569997707 C577.514641276316 642.2902737944123, 685.7017796240048 642.1340111606809, 830.1565288539927 639.6871714258652 M830.1121171787391 638.2446478176063 C831.8806558514009 656.5423177324694, 827.6913794889648 670.4225585025529, 831.2947647546578 696.0767709115338 M830.4639083366739 640.0834397453998 C830.1207099298555 659.5321972319434, 829.3249060521274 678.3319900677826, 831.0208914319318 695.3115151489651 M830.3171968120195 695.2699557914768 C743.7029950585784 693.3042585029665, 657.0273981653987 692.6916657087596, 470.64300029345765 695.0166206067887 M829.335475934742 695.2491742107762 C732.6486763118716 693.1111015697714, 633.8951962905778 693.3665245889838, 469.2700532191174 696.5206819951007 M467.8139495341605 694.2105682236726 C468.1597928678271 676.4899446072459, 469.85931768711396 655.2181734699628, 470.7295212434128 638.4034247930848 M469.417014471286 695.2291020489204 C469.52222025719925 674.656776068465, 469.007991198541 656.1336316021345, 470.2013546405352 640.1300423166872" stroke="#1e2430" stroke-width="2" fill="none"></path></g></g><g><text x="650" y="657.75" font-size="14.5" fill="#1e2430" text-anchor="middle" font-weight="normal" transform="rotate(-0.3 650 657.75)">Cross-Encoder Reranker</text><text x="650" y="678.25" font-size="14.5" fill="#1e2430" text-anchor="middle" font-weight="normal" transform="rotate(-0.3 650 678.25)">ms-marco-MiniLM-L-6-v2</text></g><g><g><path d="M650.3193843005689 600.0681761059931 C651.9407356327749 614.9450488897539, 650.4050434249134 627.2198369225816, 650.5127755655584 641.5973909585955 M649.8730000823948 601.0924697354448 C649.3305595623854 612.6866564561956, 650.1945997933121 624.4661429826281, 649.2742017608288 639.0217762932107" stroke="#0f8f78" stroke-width="2" fill="none"></path></g><g><path d="M 650 640 L 645.2153791247765 630.0950818741205 L 654.7846208752235 630.0950818741205 Z" fill="#0f8f78" stroke="#0f8f78"></path></g><text x="650" y="615" font-size="13" fill="#0f8f78" text-anchor="middle" font-weight="normal">top candidates</text></g><g transform="rotate(0.4 640 767)"><g><path d="M478.8067532826948 735.7909092712247 L802.1477915421967 736.3103128943932 L802.1026296067366 795.9286099102248 L480.17276081571873 798.4477358206731" stroke="none" stroke-width="0" fill="#dbe7fb"></path><path d="M480.9499250269643 736.3061779107298 C594.6242595555453 735.4020268729589, 707.1303710656111 735.7854410319951, 801.4716134643178 734.9066135483183 M480.3096528687638 736.1240539927929 C559.6304505373627 733.5637496025522, 639.2289454280552 733.4916923363634, 800.2816430984324 735.2500918465335 M801.1785122060822 735.2585026431464 C800.6602040250617 749.5792715253367, 802.2206899398889 763.0202923119451, 800.3491028442908 800.2546711616664 M799.1834806730103 736.4457898418337 C799.9184656481495 757.4513573121113, 800.921823697037 777.3244005942505, 800.089852844044 796.9314668192691 M801.2128823124573 797.7723894276695 C707.4286491227286 795.3873368825176, 614.8446198531558 796.0816271810489, 480.3393613379455 799.1777989413769 M800.4874403020408 798.194539211276 C727.975953983647 798.6310293204738, 654.9231735008304 797.0897455741406, 480.0561473505911 798.0750546989193 M479.2622955809868 800.0851075439657 C480.726485162089 785.2021719929605, 477.7703699090498 771.8940847441462, 480.7702939255238 737.2144927624325 M479.0448711822425 798.3142993813938 C479.37401441236625 778.1317015313768, 480.4194618992206 761.1589880041075, 479.28884679834783 735.4369388223588" stroke="#1e2430" stroke-width="2" fill="none"></path></g></g><g><text x="640" y="756.75" font-size="14.5" fill="#1e2430" text-anchor="middle" font-weight="normal" transform="rotate(0.4 640 756.75)">Groq LLM</text><text x="640" y="777.25" font-size="14.5" fill="#1e2430" text-anchor="middle" font-weight="normal" transform="rotate(0.4 640 777.25)">Llama 3.3 70B (chat.completions)</text></g><g><g><path d="M649.3232591033976 698.1853895949617 C648.0175446498918 704.9336550325596, 648.2750521249304 716.1397063973357, 651.1087367907572 736.4543689396365 M650.9201087015717 695.8975760541172 C651.1003859857392 704.4264074333611, 651.2756010686904 713.1213716914057, 650.9022202254497 736.5437472592688" stroke="#2f5fae" stroke-width="2" fill="none"></path></g><g><path d="M 650 736 L 645.2153791247765 726.0950818741205 L 654.7846208752235 726.0950818741205 Z" fill="#2f5fae" stroke="#2f5fae"></path></g><text x="650" y="710" font-size="13" fill="#2f5fae" text-anchor="middle" font-weight="normal">reranked context + question</text></g><g transform="rotate(-0.5 1040 767)"><g><path d="M912.2724528988085 737.6898715647147 L1171.7236450038806 737.0373873024146 L1168.4647031365946 797.2888926104517 L912.026579052425 796.4628636896796" stroke="none" stroke-width="0" fill="#fbe8c8"></path><path d="M911.7944211192427 737.1237039872649 C1004.2764947054773 736.0560289144348, 1098.6757529127851 737.2446440384707, 1169.9712276770276 735.4054481497003 M910.2596646310844 736.8476371427015 C1002.401095161054 734.7627542026947, 1096.5345746449675 735.5149603641377, 1169.8432582852156 736.5933089004513 M1167.8784090060892 737.4690825113877 C1169.3311149586705 748.5523222047902, 1169.4300216618544 763.1686590131301, 1171.6484339065998 797.9236329754245 M1170.3517940588554 736.7330232441228 C1171.1133441833263 753.4600683454717, 1170.1834241004633 772.8322742187078, 1168.9341405143352 798.9213705191605 M1171.2826436495534 799.8100843685673 C1075.5277447888088 799.6180789320209, 978.455438163161 798.0189047446046, 909.394566694253 796.6851494878767 M1169.831254039442 797.64592727732 C1092.5718691862523 796.1713296341322, 1013.4193240136649 795.5151552903833, 909.6624534965692 797.2864013066607 M909.4471359811598 797.2492926325679 C908.6964386177749 781.153866241464, 911.3096305284437 770.2915769735719, 908.921390612527 736.4033797270654 M910.6347849070629 797.3343629775402 C909.662323566733 773.9245754438712, 908.8559398120144 750.7213165979402, 908.939071266707 736.5908243462578" stroke="#1e2430" stroke-width="2" fill="none"></path></g></g><g><text x="1040" y="756.75" font-size="14.5" fill="#1e2430" text-anchor="middle" font-weight="normal" transform="rotate(-0.5 1040 756.75)">MongoDB</text><text x="1040" y="777.25" font-size="14.5" fill="#1e2430" text-anchor="middle" font-weight="normal" transform="rotate(-0.5 1040 777.25)">chat_history collection</text></g><g><g><path d="M802.193047402067 769.1226173729688 C822.558870399903 767.7115139572634, 847.8425272687634 763.8621813136834, 911.0119963220048 767.3901035488776 M799.5267179161686 767.9455999634753 C832.2077452304571 766.4438064721626, 864.3986649479212 765.5232364423675, 910.5545054657606 768.0220197750547" stroke="#b8790f" stroke-width="2" fill="none"></path></g><g><path d="M 910 767 L 900.0950818741205 771.7846208752235 L 900.0950818741205 762.2153791247765 Z" fill="#b8790f" stroke="#b8790f"></path></g><text x="855" y="761" font-size="13" fill="#b8790f" text-anchor="middle" font-weight="normal">insert_one(...)</text></g><g><g><path d="M670.1689560850228 798.5579355399269 C669.5404528949988 827.6666862797599, 671.0655831564616 858.4156888718617, 671.0914444619289 900.9897781438101 M670.8540981348087 798.1749641181316 C668.6009827884872 832.6514100419051, 669.2114129543787 868.7272198171344, 670.3097479575198 900.1178003353639 M670.4851330455517 899.6126158408281 C878.565459708906 898.6378620783955, 1088.3871762126869 897.5112074708941, 1289.7563785140082 899.1332259170885 M669.6058233577322 899.7826418860777 C911.7658418279568 900.2963288514098, 1152.876373946701 900.3421397791759, 1289.9217024508832 900.3075485477605 M1290.5744705630418 900.2809421016864 C1288.6662336434351 717.9999920041764, 1288.6629023094495 537.6925818684433, 1290.8010413598045 351.7496401316908 M1290.3858687176603 899.9092563733914 C1288.6413856493416 763.9255984472696, 1288.638306776317 627.2069519233272, 1290.3885732626636 352.02414517386933 M1290.108934468191 351.73648640029757 C1114.167351924957 349.8412324012797, 937.92079901302 350.5940325442539, 829.7964210031137 352.20343691371784 M1289.8919087793663 352.1990087637143 C1127.7299086782173 351.4220360548661, 964.7416612333699 351.6642324298235, 830.1323361070386 352.19671046719736" stroke="#2f5fae" stroke-width="2" fill="none" stroke-dasharray="6 5"></path></g><g><path d="M 830 352 L 839.9049181258795 347.21537912477646 L 839.9049181258795 356.78462087522354 Z" fill="#2f5fae" stroke="#2f5fae"></path></g><text x="790" y="918" font-size="12.5" fill="#2f5fae" text-anchor="start" font-weight="normal">{ response } returns to Next.js UI, which renders it in the chat</text></g><text x="150" y="205" font-size="16" fill="#b8790f" text-anchor="middle" font-weight="bold">Offline Ingestion Pipeline</text><text x="150" y="224" font-size="12" fill="#1e2430" text-anchor="middle" font-weight="normal">(RAG_New_solution.ipynb)</text><g transform="rotate(0.3 150 270)"><g><path d="M38.51200166657663 240.3299082861027 L258.68599716011096 238.54413677341583 L260.9224125262689 300.48154054904444 L38.44004784595828 298.4104612075283" stroke="none" stroke-width="0" fill="#fbe8c8"></path><path d="M40.411522329958025 238.32457783696876 C121.94502204886616 238.0715788642568, 203.4968659773418 240.040235978742, 261.48251282879846 239.56781942817432 M40.088696657654566 239.2676054760472 C114.01750806148155 239.0624612448751, 187.89422506863494 238.00880505922808, 260.2875584113835 239.1456813168464 M260.24104797438 242.3189231151967 C259.63006169302145 263.5543110097394, 259.3670716354047 286.0976865586647, 261.33871796977434 299.54600166537455 M259.82415213038155 238.9896811288724 C260.53032058254985 254.97779761989568, 259.1595013373821 267.07191794515643, 260.00257795717596 299.3928762495221 M260.1361817804552 300.37199962338036 C214.08513338027353 297.6192018031313, 169.9179667698372 299.79382640370324, 41.6458894623277 300.4013860781684 M259.84338973027695 299.8072676727181 C209.98468068952843 302.05302895331386, 159.7802930218623 301.6306372515358, 39.909123619773766 299.32095687044546 M39.86288970479884 298.63389327779345 C40.52815906593668 280.25369729805, 42.514114078610845 258.2217026389881, 40.3829294965357 239.90161935532052 M40.42683321809729 300.24637980263054 C40.90449992454205 276.29770750688186, 39.21437349516141 253.5687454433458, 39.95846289089254 239.15192507063207" stroke="#1e2430" stroke-width="2" fill="none"></path></g></g><g><text x="150" y="260.75" font-size="12.5" fill="#1e2430" text-anchor="middle" font-weight="normal" transform="rotate(0.3 150 260.75)">Multi-format Loaders</text><text x="150" y="279.25" font-size="12.5" fill="#1e2430" text-anchor="middle" font-weight="normal" transform="rotate(0.3 150 279.25)">PDF - DOCX - HTML - CSV - TXT</text></g><g transform="rotate(-0.3 150 358)"><g><path d="M37.80437280073672 330.785855766573 L258.07094024286835 329.58710280297055 L260.19932459505134 386.7515067830129 L39.35080671273464 384.9339695147841" stroke="none" stroke-width="0" fill="#fbe8c8"></path><path d="M39.51375822451713 331.5268792424877 C97.11177012814571 328.6670215456833, 149.75083915253467 331.15248428527224, 260.30980101803135 328.2067846564809 M40.46181963777085 330.3970153781233 C126.39855351386986 328.91726749197716, 212.22245508142967 327.68608818288266, 259.8027462089237 330.9390810887837 M261.3757682040656 328.63211724550706 C260.0485331584746 343.80363265072896, 260.5860255875197 359.9754361460833, 262.3978905987455 386.83150065120145 M258.98691936833734 330.70889934701864 C260.49239333108227 348.93893891866395, 259.00147907433205 365.5257134493101, 258.8471808927066 386.38059087894646 M259.2022776433283 384.93566831781965 C217.06202367307134 382.90918298753496, 169.8178060266461 384.5953680183856, 40.29705156266441 386.2543429707441 M260.98938533415395 385.30230726927664 C192.26998373430217 384.20101351569696, 125.33146974214159 383.59921185031783, 39.060095357186185 385.4404907631028 M38.97078874900706 386.2250608977298 C39.36233434724495 365.27506596342886, 40.45727009400242 346.10515596046065, 40.73338796452008 329.26045257000067 M38.91002827046253 384.9045992882666 C39.63507039225705 374.77875463473015, 38.68439890794255 361.81307322017886, 40.11979262924312 330.87559155445535" stroke="#1e2430" stroke-width="2" fill="none"></path></g></g><g><text x="150" y="358" font-size="14.5" fill="#1e2430" text-anchor="middle" font-weight="normal" transform="rotate(-0.3 150 358)">Recursive Chunking</text></g><g transform="rotate(0.3 150 448)"><g><path d="M39.06816279802936 418.06355043943677 L262.22241952519767 419.3674305092307 L261.36743414439013 474.4137056778026 L39.47087469167416 477.18130434074266" stroke="none" stroke-width="0" fill="#fbe8c8"></path><path d="M40.79813065264019 418.67784941951464 C124.61365453855548 419.14412163455484, 209.7724169836161 419.2926271434486, 261.0720297665098 418.74989888348495 M39.24849881540034 419.503585493117 C103.23993127165657 418.3356020832495, 168.23911750744008 419.17314786281514, 259.1791736288238 419.1662772644336 M258.7985699621305 418.0697810378883 C260.92185415349394 444.07557994355784, 259.2460033251549 465.2449217202863, 260.8036981974567 476.7435796960242 M259.9090325069596 419.7527523727686 C259.1557919758519 432.37036799026026, 259.9646339699124 447.4575422224643, 260.37767214234606 476.15890005612493 M261.0083138165954 476.332430410158 C187.53135845805656 477.73385679097134, 119.8379481865241 477.3866417454963, 40.29861856331014 473.93086304778626 M259.5823752656307 476.87270481917807 C206.94448185581533 473.38666362049884, 152.85534064584917 474.6574296019311, 39.53093536203638 475.4513581931639 M42.04248355921542 475.48025754196203 C38.18787930929513 453.94634090212577, 37.74752644326411 431.6806069492301, 42.01437291583078 417.98080151895476 M38.816601992422555 476.28948372115724 C40.474460122322135 457.35769413268815, 39.463021229199256 438.7495187158735, 39.92213453223379 419.52243207472173" stroke="#1e2430" stroke-width="2" fill="none"></path></g></g><g><text x="150" y="448" font-size="14.5" fill="#1e2430" text-anchor="middle" font-weight="normal" transform="rotate(0.3 150 448)">Embeddings (gte-small)</text></g><g transform="rotate(-0.3 150 538)"><g><path d="M40.56174431104237 509.6039078567943 L258.42749987964004 512.0570049303728 L261.40423014338734 567.7568122749462 L38.37846388553644 566.0234921219834" stroke="none" stroke-width="0" fill="#fbe8c8"></path><path d="M40.748937003593525 508.1899101449581 C102.2484416882755 509.66650828031584, 165.98167448047917 510.5555996496683, 259.1859623449518 510.95113391724686 M40.935505479304695 510.89356241672675 C120.3314469644778 508.30338149912296, 200.2810364818099 508.26151039970375, 259.78235749596445 509.8072801547324 M261.2259634290682 510.14296489807737 C261.8719841371612 533.2768668310414, 258.43562866859975 552.6739516717856, 260.91697660253914 564.6326872855576 M259.29146922569925 509.9371589825184 C259.68499708711715 527.0789239064953, 259.7395149471392 541.6677538223493, 261.1602236794521 566.015292571017 M261.2268775663822 566.8215687630719 C193.89438520004703 567.6302961688428, 132.15251851642958 566.4086000318362, 38.79430951334821 564.4801334581939 M259.89717097343544 566.2977506376626 C200.573499649074 565.8160783791839, 140.44178544319897 566.5668394231569, 40.18458461880939 565.2007704594278 M40.12591887408148 566.5495777236943 C39.53710260047869 553.7075120894589, 38.952124455894584 541.0876896667733, 38.67017570814142 511.31637117723886 M41.126055964888046 566.5885326745496 C39.65801113806113 553.2363492269507, 40.630232053427434 542.9912867217935, 41.07131055222518 509.3418414526842" stroke="#1e2430" stroke-width="2" fill="none"></path></g></g><g><text x="150" y="538" font-size="14.5" fill="#1e2430" text-anchor="middle" font-weight="normal" transform="rotate(-0.3 150 538)">BM25 Corpus (in-memory)</text></g><g><g><path d="M148.2804096438062 300.95326580675214 C152.14758362319515 309.0444913933849, 148.60642669899082 313.985184639494, 148.00744184479714 329.6401634715419 M149.07162593157508 300.3565632457373 C150.02863168689444 306.49351303497053, 149.39333932274997 315.9167840005348, 150.98693408485985 330.72706271970634" stroke="#b8790f" stroke-width="2" fill="none"></path></g><g><path d="M 150 330 L 145.21537912477646 320.0950818741206 L 154.78462087522354 320.0950818741206 Z" fill="#b8790f" stroke="#b8790f"></path></g></g><g><g><path d="M147.92123793443812 384.4749383978502 C148.6471057072493 395.4838722041543, 150.80635715858605 404.460897106287, 151.39111599142763 421.8851188306483 M150.95377403801893 385.0647925855584 C150.66647426247354 395.8073946050835, 149.95142754563082 407.19052363624667, 149.50883328967373 419.4769751574113" stroke="#b8790f" stroke-width="2" fill="none"></path></g><g><path d="M 150 420 L 145.21537912477646 410.0950818741206 L 154.78462087522354 410.0950818741206 Z" fill="#b8790f" stroke="#b8790f"></path></g></g><g><g><path d="M150.05359248790944 475.86127066993174 C150.5777847120581 485.66173611733916, 148.78701235788003 496.4342244213062, 149.49222635034752 511.6426745724709 M149.53702673625065 474.9301426089402 C150.48576708763008 485.9023294293824, 149.49819289292302 495.2683550770333, 150.89516016184785 510.0739514800214" stroke="#b8790f" stroke-width="2" fill="none"></path></g><g><path d="M 150 510 L 145.21537912477646 500.0950818741206 L 154.78462087522354 500.0950818741206 Z" fill="#b8790f" stroke="#b8790f"></path></g><text x="150" y="487" font-size="13" fill="#b8790f" text-anchor="middle" font-weight="normal">same chunks, tokenized</text></g><g><g><path d="M259.0629464321165 450.0194175999737 C264.6452351295852 446.159646004893, 267.56781934586877 448.1085509750295, 280.61512334122807 448.15197077377644 M259.02806824418985 448.65270128045853 C264.1806509563025 447.87049304990563, 270.2633987623493 448.54732749980536, 280.9243983286473 451.00437101003627" stroke="#b8790f" stroke-width="2" fill="none" stroke-dasharray="6 5"></path></g><g><path d="M 280 450 L 269.66815052757465 453.77529952177895 L 270.62032566995515 444.25354809797403 Z" fill="#b8790f" stroke="#b8790f"></path></g></g><g><g><path d="M261.55190243290605 528.3848446144359 C266.59521532173716 505.1581994343464, 275.54349523304097 479.56629029461277, 298.1592905470381 405.36625666378404 M260.5598898332806 529.4002740955322 C273.5875560369329 491.35935542097576, 285.5275402861134 452.1230603903448, 299.39118626612805 406.0411356869015 M300.8281443802217 405.8185200409834 C425.0188567432143 404.25679682194453, 549.724064516795 404.4643288555553, 740.0808147965989 404.48032710210475 M299.5904966088537 404.4773786779083 C411.15364442574014 404.30746636634956, 522.8389964852068 403.7701349447507, 739.5497377488108 405.4671534376773 M740.4888845642587 404.61523715985254 C740.7441357709915 411.0902526688811, 740.3999477058998 421.38214017017657, 738.2998117798404 430.7776956644915 M741.0959119241663 404.79120339107044 C739.3886601094939 412.90659378584735, 741.0796527576993 420.1323614004897, 739.1772098011389 430.66047138492155" stroke="#b8790f" stroke-width="2" fill="none" stroke-dasharray="6 5"></path></g><g><path d="M 740 430 L 735.2153791247765 420.0950818741206 L 744.7846208752235 420.0950818741206 Z" fill="#b8790f" stroke="#b8790f"></path></g></g><text x="1170" y="216" font-size="16" fill="#6c4fc4" text-anchor="middle" font-weight="bold">Legend</text><g><g><path d="M1080.1143790187025 242.0009460300253 L1112.2241021559375 242.32853886512126 L1112.5786246742116 261.76979966435533 L1080.9467955477724 263.70397269862184" stroke="none" stroke-width="0" fill="#dbe7fb"></path><path d="M1081.569448940051 239.76443504420982 C1085.864710136144 238.5528912222658, 1093.3978798078635 239.043262654822, 1110.7694821772468 241.92385797705901 M1080.2662046415448 240.6914447658931 C1090.7658087927875 239.78736310672596, 1100.7877915835263 240.20081264997754, 1112.4335916519178 239.79467251168563 M1111.248579453532 240.12028134730437 C1112.1943417122695 249.17037882918336, 1110.3275287683923 257.28203426787894, 1111.3850202694616 265.7295346811597 M1112.1718545196986 240.33803909588775 C1111.580327752675 244.9820060264647, 1111.2807357361191 251.04051130588803, 1110.9444070388533 263.2719658023588 M1109.6175555567622 263.48230108792563 C1100.5427631530606 263.6034538575474, 1092.5076401251476 263.86408597065986, 1079.408950165382 266.16540582449795 M1112.0780283435424 263.368826910461 C1104.582460620392 263.77383135763546, 1099.483842265917 263.8016529292927, 1078.9891444522054 265.175467172913 M1079.5003471362033 261.7500588095413 C1082.1344141769052 255.22240583581117, 1081.657110588622 249.90943656198922, 1078.442930278287 240.12094470992372 M1080.7974514181235 264.98428075233954 C1080.9494528280115 256.9782299934949, 1080.8901159707036 251.66946555984936, 1080.2629285098178 240.68139321438514" stroke="#1e2430" stroke-width="2" fill="none"></path></g></g><text x="1126" y="258" font-size="13.5" fill="#1e2430" text-anchor="start" font-weight="normal">user-facing</text><g><g><path d="M1081.753025367136 282.0094903860805 L1113.7795233795605 280.8447842271065 L1110.0664397338446 305.20532001060343 L1081.1317605639974 307.2792452886021" stroke="none" stroke-width="0" fill="#e8e1fa"></path><path d="M1079.7736531043988 282.188901607111 C1089.64064287415 282.4245272455737, 1104.9163013596608 282.0877829450869, 1110.1177618374718 282.93650790449794 M1079.9664059335105 282.3266289894651 C1091.8294499162116 282.85829871356987, 1102.909506037443 282.01897300997234, 1112.1703352267164 281.7334285972847 M1113.4568372971928 281.8796320360074 C1113.6259546036192 288.9600063884936, 1112.7751632416584 294.2986947900709, 1111.9053392614244 305.6079875670911 M1112.927100126137 282.82052136280134 C1111.7604096109653 287.11764532928737, 1110.9900799955024 292.9665570174343, 1112.997347587103 306.16910412744187 M1113.2599556055538 308.24210512086023 C1103.1240391682911 307.7354779862551, 1092.3652415443187 303.9864070223195, 1078.096337623011 305.6937631985199 M1112.4408928907035 304.95301835945793 C1101.6897844743557 306.2034290568642, 1092.1811704680424 304.9215059674335, 1081.121345884676 305.11423553589947 M1078.4888892423014 304.82199688349243 C1081.9850390112072 298.118761712722, 1080.8976226999384 289.70092098481877, 1077.660154242631 281.3659039152357 M1078.8899690735834 305.99473891354944 C1078.852824777757 299.44957192724763, 1079.4483457009774 291.35820497857804, 1080.668867602908 283.1544768518426" stroke="#1e2430" stroke-width="2" fill="none"></path></g></g><text x="1126" y="300" font-size="13.5" fill="#1e2430" text-anchor="start" font-weight="normal">API layer</text><g><g><path d="M1080.2001696678535 321.71162227240416 L1110.1170999038202 325.7834745917335 L1110.5037582145421 348.4307799201425 L1080.4853435020664 346.37742470747406" stroke="none" stroke-width="0" fill="#d7f5ec"></path><path d="M1081.9718637791675 324.2696353111247 C1087.1228260940316 325.51809747414546, 1092.1545554750471 322.537280008693, 1111.5727499715445 323.71427887053403 M1079.6330561787343 323.9183002371629 C1089.7287279446668 323.22218399212085, 1099.6747639100074 323.8705472208826, 1112.415828800038 323.8537529944018 M1109.7859641535204 324.29649015446824 C1110.854170520902 332.8985429446856, 1113.7576444205033 341.36309084319146, 1113.0448447967058 345.84992548570597 M1111.5330685578224 324.3535496106557 C1112.6536718952689 332.2222028668908, 1111.5280165001582 339.6393414192451, 1112.8461654141972 348.19861296897494 M1114.0362741883891 346.52849576630285 C1103.1648408275328 345.9413659903706, 1096.7457309535962 349.5216791695148, 1080.370461082467 345.8073533679171 M1111.037922560918 347.02591222737453 C1104.4499100063567 348.33200189137824, 1097.3079703510898 348.9308636003537, 1078.988813850695 348.50737817774046 M1082.3230032060849 347.3425924232524 C1081.9901427000038 339.77481467008465, 1081.7377102802332 327.45890908788044, 1081.3695156866304 324.6991547146883 M1079.6701457678273 346.87390077512026 C1080.1751332334939 342.73321152260723, 1079.2984613669066 335.65214021695107, 1080.785896013931 324.0003963053867" stroke="#1e2430" stroke-width="2" fill="none"></path></g></g><text x="1126" y="342" font-size="13.5" fill="#1e2430" text-anchor="start" font-weight="normal">retrieval</text><g><g><path d="M1080.5037793286651 365.9770082077168 L1113.8900976199716 365.1260597961115 L1110.0029187935922 391.3283749642418 L1082.304392143927 389.4484997004053" stroke="none" stroke-width="0" fill="#fbe8c8"></path><path d="M1078.3001712457904 365.4492769545442 C1087.3620510120697 367.45645754796703, 1098.5239043948786 367.42205881722634, 1110.5020792339617 364.5276940609354 M1080.484475287063 364.8157059031018 C1087.1036282622144 365.3368037801056, 1093.5279233014192 365.99115172887707, 1111.8392198336057 364.97355707461224 M1109.7904717770145 368.30965941399523 C1110.973317178913 372.93313364071037, 1112.618227251797 376.4544979174836, 1111.2213743023851 389.36729622909604 M1111.175906336015 365.7879281061683 C1112.9136860626274 370.83160173352866, 1111.458067957248 376.60423089528564, 1111.3887926973034 389.2333779457236 M1112.823317850494 390.87092681138535 C1104.0474461964243 390.8658036535314, 1092.8719982843304 391.0714877134476, 1079.7476637722868 388.3624895043727 M1112.6986641093556 389.7708851737374 C1106.1377953067447 388.79002630603526, 1099.8815102676228 389.7816479714985, 1079.2300213275346 390.78759311420487 M1080.6235253264213 391.4392998320479 C1078.92795377068 382.1084439686518, 1079.3746614025856 376.36953079229016, 1079.5493864218206 366.0099960834375 M1080.1410201003762 389.47482201854234 C1080.6895922290314 382.25712076630884, 1080.4877643972338 375.7375066989199, 1080.308088689233 364.89703950237396" stroke="#1e2430" stroke-width="2" fill="none"></path></g></g><text x="1126" y="384" font-size="13.5" fill="#1e2430" text-anchor="start" font-weight="normal">ingestion / storage</text></svg>