<svg xmlns="http://www.w3.org/2000/svg" viewBox="0 0 1650 1380" width="1650" height="1380" font-family="Segoe Print, Comic Sans MS, cursive"><rect x="0" y="0" width="1650" height="1380" fill="#f5f7fb"></rect><text x="825" y="50" font-size="32" fill="#6c4fc4" text-anchor="middle" font-weight="bold">Med-AI ~ Request Sequence</text><g><path d="M564.721373653315 65.2586761931926 C765.82023448017 62.16011588708065, 965.8169788891327 63.73568586084234, 1083.6528056089644 66.09529204203625 M564.540937672862 65.59602217969442 C713.7677972519045 63.13231437671752, 863.9726671761283 62.603120862511005, 1085.2900431999321 65.37589055566788" stroke="#0f8f78" stroke-width="3" fill="none"></path></g><text x="825" y="92" font-size="15" fill="#1e2430" text-anchor="middle" font-weight="normal">One "Ask a question" round trip through the hybrid RAG pipeline</text><g transform="rotate(-0.5 110 130)"><g><path d="M35.84711572019568 106.08177230570641 L182.91645432521418 105.8652374434196 L185.4365881894959 154.3489012096175 L35.61730485011292 154.98873987823183" stroke="none" stroke-width="0" fill="#dbe7fb"></path><path d="M36.264694363978336 106.94654390555 C86.19048634935453 104.25912891224881, 140.89191532661334 103.88574799065103, 185.4421865412843 107.09236306797324 M35.34999613807746 105.74144919322627 C68.94476043427375 103.84580211671724, 102.31714061992867 103.5880397226662, 185.93290323170197 105.4150475710185 M183.42296878719898 103.44506023180811 C184.57650290557757 115.98596017780163, 185.55405490310685 124.12565535859146, 187.09174381044878 154.6162462004363 M185.00510218706427 104.52833147735592 C185.40459061823952 115.87928050916774, 184.97757113851665 127.27865136672878, 185.22487887418507 155.64557564892937 M185.173607195165 154.93734009704556 C132.46333995608512 151.19408208565665, 81.3694934511677 155.65019121427986, 33.76462182307374 153.11378870356899 M185.44658331501842 154.42927720510409 C130.65074011507647 156.2806979323024, 74.72752093949907 155.5608550591724, 35.06650819875376 154.44909257566445 M34.549274771732904 156.23344773372744 C35.13638610492144 140.02322074808993, 33.05370570446793 120.21755823588869, 35.20801902060904 105.70360402104171 M34.062725502902666 155.35293001092376 C35.197543330826214 138.99204856110967, 35.86243213815153 124.3784888283374, 35.27170986468193 104.29156757399257" stroke="#1e2430" stroke-width="2" fill="none"></path></g></g><g><text x="110" y="130" font-size="15" fill="#1e2430" text-anchor="middle" font-weight="normal">User</text></g><g><path d="M110.35736590601681 155.79703475220722 C108.91463425626138 585.6950521915974, 109.76355891015496 1016.3444716692121, 109.46064479569962 1300.091899003394 M110.06038765275555 156.1441739251121 C112.40511429343731 496.7896359890935, 112.39955713885124 837.0336390312198, 110.37457401955294 1300.0744116088174" stroke="#1e2430" stroke-width="1.5" fill="none" stroke-dasharray="4 6"></path></g><g transform="rotate(0.5 314.2857142857143 130)"><g><path d="M240.97546448065424 102.60177415662659 L391.2438894853688 104.79593159574523 L387.6044923605935 155.18330165123606 L239.81419512187657 153.82602863134457" stroke="none" stroke-width="0" fill="#e8e1fa"></path><path d="M239.46743661088536 106.45882583194567 C295.2172348722427 103.41185050661349, 348.60529398239987 104.85294797898197, 389.0781617168434 103.22013631478826 M238.25679197513347 104.78899620887343 C275.14001579010704 106.66592912432316, 312.2204472248814 106.89478908421029, 389.2751360920133 105.4327446022801 M389.6337412850959 103.53215550918917 C388.5978637963344 123.89548275384244, 390.0261993652835 140.26456624947144, 387.803186350449 155.42640209716063 M389.25682635362864 104.97739360888444 C388.6168017746386 115.1984411972338, 390.72072075326497 128.05475027448455, 389.7894125015709 155.18204337822363 M390.84004042120023 155.53951557771867 C348.1848748495259 153.05459446941742, 301.7900836856701 156.64293140392132, 238.11420435909844 154.6990066351472 M388.97549724450687 156.0442084596969 C344.62534841791836 154.90863445031823, 301.03767437008656 154.467845593228, 239.28390509001548 154.0204058783696 M238.81984136603734 155.9539594448081 C239.5151750318105 138.92675087710762, 241.8634130114925 124.50655325406584, 238.5886577622828 104.7145631136375 M238.32125876693496 155.74081290635556 C238.52794392740591 141.69708859041438, 239.73612015294975 130.64210499851424, 238.23607602217032 104.49593863227584" stroke="#1e2430" stroke-width="2" fill="none"></path></g></g><g><text x="314.2857142857143" y="130" font-size="15" fill="#1e2430" text-anchor="middle" font-weight="normal">Next.js UI</text></g><g><path d="M313.5830099865687 156.70867968374287 C316.4257828753508 518.3646692727016, 315.3344228595033 882.0431746050082, 314.40038061457864 1300.5297983399823 M313.91715107147684 156.18451564852703 C316.1928316269754 611.5649540100738, 316.5998352875414 1066.5159853971502, 314.2557647809681 1300.3209763437105" stroke="#1e2430" stroke-width="1.5" fill="none" stroke-dasharray="4 6"></path></g><g transform="rotate(-0.5 518.5714285714286 130)"><g><path d="M441.99226974659337 103.63129904658629 L593.1179212324249 105.98745740461052 L591.2919891215515 154.22853311029016 L443.0517656420683 156.55110409297876" stroke="none" stroke-width="0" fill="#e8e1fa"></path><path d="M442.39694135769435 105.41849942425087 C493.02615960843923 107.67975630595056, 542.9363186255555 107.64248577506919, 593.7887176825797 107.36265208895868 M444.4797163860515 105.98213556901085 C477.2508616011966 103.65137356113661, 510.67794222579886 104.13943760760857, 594.2210746938197 104.38655683643202 M592.3418650619127 105.3050917109612 C596.2832516760639 124.45837361829749, 593.4147894426442 140.02031824659204, 592.1314631889923 154.57470502301786 M592.9614752239329 105.59908796197921 C593.9336248765165 121.6261321525732, 593.0319998765175 135.17265119563493, 592.7300164606835 155.1781025589071 M595.6882221652158 154.70387113415714 C558.4510888949987 153.99587589425286, 530.029908723267 155.2507064299143, 441.8918047165365 156.32161104340346 M594.5185801663765 155.87638308036685 C548.9506512801971 156.46888927907875, 501.39815413485303 156.02010381577293, 444.459677114375 155.55243663929573 M442.9490282290623 154.0712617354834 C442.7141280395775 141.07517334343999, 443.68853931054997 125.98962930508476, 444.25659730175227 106.88400270674342 M443.049372222516 155.97940968838316 C442.9524501656162 140.43982003501512, 444.2704004846639 125.03441372838112, 443.39628446173634 105.41095751983639" stroke="#1e2430" stroke-width="2" fill="none"></path></g></g><g><text x="518.5714285714286" y="130" font-size="15" fill="#1e2430" text-anchor="middle" font-weight="normal">FastAPI</text></g><g><path d="M518.0049903237925 156.53145286699794 C518.0811622390142 399.5116136933411, 518.2220165884007 644.0710692719906, 518.6022617742699 1300.647215911264 M518.8993117076545 156.0090213268461 C516.4281253689571 589.2916059950641, 516.8165148139321 1022.5632199069756, 518.2963183999879 1300.218309554456" stroke="#1e2430" stroke-width="1.5" fill="none" stroke-dasharray="4 6"></path></g><g transform="rotate(0.5 722.8571428571429 130)"><g><path d="M645.8757536633221 105.35570221394522 L796.3343391684683 105.27515556204057 L800.0462478894749 156.28302902730053 L649.5864898520207 155.4823710484826" stroke="none" stroke-width="0" fill="#d7f5ec"></path><path d="M649.7686320341485 106.4263378005887 C692.2616989926572 104.75416380205475, 740.5726531402453 105.09092806328307, 798.1077722756592 107.25709974516981 M648.9171650258968 105.09243999914528 C678.8095176990926 106.54923018328054, 712.7410212182288 104.83250246848837, 798.2339709071871 105.61627472831302 M798.6340500337145 106.56720321983659 C799.0101204876572 121.31581196677652, 797.3198290936423 133.0905633248418, 799.5033347648554 156.38406468730338 M799.0285354636978 104.18298377976001 C796.8408605245743 119.54445866524782, 798.2068269802887 135.25477148415862, 798.5736308902193 154.55393730944135 M795.8631073812211 157.2405019557716 C742.6310768792097 155.79418538215612, 690.3409456085976 151.97293687514883, 648.0941300016698 155.57667593297575 M797.6777797994474 154.51638436488076 C764.183823981897 155.95632357801716, 732.4603720479902 156.8248169643736, 648.4896203742438 155.413688181013 M646.4390961651555 155.18055995679228 C649.3900793113907 145.3564055876416, 650.2280585752659 135.26769007748243, 647.0762114405328 102.65753891434295 M648.3038661379481 154.53427050728743 C648.3070564337772 137.41326731096868, 647.0820427281657 120.02823316353239, 647.4653528537891 104.17504107316435" stroke="#1e2430" stroke-width="2" fill="none"></path></g></g><g><text x="722.8571428571429" y="130" font-size="15" fill="#1e2430" text-anchor="middle" font-weight="normal">Pinecone</text></g><g><path d="M723.2511062348334 155.99542088990367 C723.6427222557875 520.6135097329917, 722.9762293817699 885.7475672404289, 722.6429011442566 1299.7645394198933 M723.2418915320362 156.09469624553796 C724.3202393919572 457.13212153370375, 723.9957845720689 758.1261423252841, 723.0206915487216 1299.694080380276" stroke="#1e2430" stroke-width="1.5" fill="none" stroke-dasharray="4 6"></path></g><g transform="rotate(-0.5 927.1428571428571 130)"><g><path d="M854.527618654207 103.34617539803382 L1000.0963077978417 105.87743317153621 L1003.4995047034924 155.16317840398114 L854.1676686977352 154.44246330496497" stroke="none" stroke-width="0" fill="#d7f5ec"></path><path d="M849.7959164290173 102.94399981459907 C892.6913699574691 104.7509455180664, 930.3598728718292 105.54845155090425, 1003.5169116142924 106.9916984164281 M853.1543284030197 104.61789805209371 C883.2468679075881 106.57010985622365, 913.1033245197917 104.9056220595424, 1001.341775304723 105.69362979363675 M1003.2927483027004 107.00132231372986 C1000.584321178699 118.50380635882323, 1001.5044292734957 129.28532714338996, 1002.607072903244 155.04424400356115 M1001.1618741539702 105.17300500047838 C1001.4487742518786 120.82189734239344, 1002.4816467683453 136.97472733595004, 1001.4087007974861 154.7635196410753 M1000.3099283948054 153.4652165344116 C966.2601067399133 154.60857501955843, 927.7179440222908 151.93003141861132, 853.2195253377097 156.1316833668978 M1001.7999883756944 155.56204372390718 C960.6010135854526 156.1203159482834, 920.9360749433714 156.0857343656574, 851.6568418029354 154.98643425055357 M853.3190415248018 155.41656545363884 C852.6959856701375 136.41879817137627, 853.4404311152429 119.40048810719996, 851.5711636960175 103.04895281271554 M851.0440189895237 155.4786286869662 C852.5827882964829 137.71361013215997, 851.9732891885786 119.76571259280779, 853.177249975117 105.89002770143969" stroke="#1e2430" stroke-width="2" fill="none"></path></g></g><g><text x="927.1428571428571" y="130" font-size="15" fill="#1e2430" text-anchor="middle" font-weight="normal">BM25</text></g><g><path d="M927.2112037497609 156.220107747056 C925.8856695691921 594.5497557262155, 924.6387032308874 1032.6812893426122, 927.6249833834897 1299.632455121484 M927.1837750370372 155.9601134234708 C928.1180833364665 459.9183319920477, 928.1730399353924 764.1283953540335, 927.3435535510156 1300.2406204429794" stroke="#1e2430" stroke-width="1.5" fill="none" stroke-dasharray="4 6"></path></g><g transform="rotate(0.5 1131.4285714285713 130)"><g><path d="M1057.459765616153 103.1771758482328 L1205.2487570387984 106.23079754970603 L1205.344147570774 155.24132844272853 L1056.2360175730248 154.79812539005485" stroke="none" stroke-width="0" fill="#d7f5ec"></path><path d="M1058.4935483488648 103.56253237978697 C1094.6484797097062 106.43593053392176, 1133.325788386046 106.83269577005113, 1207.8721874657228 104.45992318064611 M1057.5917101739917 106.03692878845797 C1097.5489803614485 104.69780173595571, 1137.7061173132017 104.1446371800367, 1206.1604598455483 103.85325217224987 M1207.8818995234205 102.64290772164424 C1206.4189512818316 115.90635506953531, 1207.9916842452644 126.34589888929143, 1205.278553581623 152.72314687008438 M1206.167051124415 104.25580332121397 C1205.802843152952 119.5408101510339, 1206.2456119586554 135.27620550028877, 1206.1516332567585 154.9530783331384 M1206.9245615169148 154.56012288534532 C1164.8061912414796 156.13932742540354, 1129.1643365207942 156.2673129007633, 1057.430065665933 156.28715712534606 M1206.8283463642456 156.11819372952672 C1148.1569271264864 153.1574767151724, 1093.0918586657638 152.46167741067183, 1055.4823060610777 155.88671023911547 M1056.2309767332697 153.5976370248457 C1057.5876038954718 138.75577143570004, 1056.124163531389 122.63330642550036, 1054.0951434055314 104.45023313206471 M1056.0651988148336 154.9774504890473 C1057.0889504266268 140.71151562095227, 1057.6649570747934 126.44451048690682, 1056.544611365503 104.54464167860057" stroke="#1e2430" stroke-width="2" fill="none"></path></g></g><g><text x="1131.4285714285713" y="130" font-size="15" fill="#1e2430" text-anchor="middle" font-weight="normal">Reranker</text></g><g><path d="M1131.4574192763066 155.5428737109855 C1130.0542863850603 428.94986220887193, 1130.8332074461316 699.8499271195226, 1131.7900102710357 1300.7859356708068 M1131.0833595395147 155.9385057905164 C1134.0357337782307 556.6692473753338, 1134.107766298203 957.7971085949367, 1131.7234682196056 1300.1504692675237" stroke="#1e2430" stroke-width="1.5" fill="none" stroke-dasharray="4 6"></path></g><g transform="rotate(-0.5 1335.7142857142858 130)"><g><path d="M1262.0616854218067 103.35495964382572 L1409.6492308163492 104.53620531006914 L1410.838884781032 153.3769386959129 L1260.722122734813 153.26358711654936" stroke="none" stroke-width="0" fill="#dbe7fb"></path><path d="M1258.6810931469279 104.83834816666997 C1315.397050860522 104.78355480700749, 1366.713699728153 105.11612519053696, 1411.5865921935654 103.82937839728248 M1260.9453099816837 105.13373524646393 C1306.0493320204491 105.49275318004128, 1349.457483132425 106.08608703150479, 1410.9162361102321 105.85570584171762 M1409.5457816829228 104.24437232770394 C1410.1626755555042 124.00385724969908, 1411.6937978000592 144.84503520045146, 1411.130913990453 155.73605292912492 M1411.72517946787 104.37790256389054 C1410.4231273848166 120.23318384566888, 1409.3078391793074 137.4931765333375, 1411.6660926883528 154.06538118784698 M1408.5747382573124 154.54396782231308 C1360.9645374929514 156.64024612902503, 1313.8859447512104 156.58465410468128, 1260.688029613309 157.07585665892694 M1411.3908731741867 154.38451589847014 C1352.6545321365932 155.43156194147286, 1292.552868898245 155.08233325881923, 1261.7477684005953 154.93717611445467 M1262.3700703365614 157.002208840491 C1262.244085906625 137.72328617072876, 1263.3585434616339 126.43644000736292, 1260.6124575411593 103.70987927667642 M1260.4226903346162 154.92700898034312 C1260.6428053180555 141.5246661741887, 1259.6138418731798 130.17841046015684, 1259.772228061709 104.89254386446655" stroke="#1e2430" stroke-width="2" fill="none"></path></g></g><g><text x="1335.7142857142858" y="130" font-size="15" fill="#1e2430" text-anchor="middle" font-weight="normal">Groq</text></g><g><path d="M1335.2621154166468 155.97487265891897 C1334.958018790405 390.9620462127705, 1334.5174882909514 624.8939202135508, 1335.8189044186772 1300.749356686381 M1335.3444960558154 156.18749693092377 C1333.5519884661844 517.3343684957337, 1333.0917566419748 878.5307798120357, 1335.9379109554354 1300.2445700710916" stroke="#1e2430" stroke-width="1.5" fill="none" stroke-dasharray="4 6"></path></g><g transform="rotate(0.5 1540 130)"><g><path d="M1464.9943844787556 107.09372539410926 L1615.6087994703216 105.80237954802672 L1613.0257774979427 156.7084532187333 L1466.3971925896076 152.663301319577" stroke="none" stroke-width="0" fill="#fbe8c8"></path><path d="M1462.9108656301769 105.7734054857188 C1499.3107577274575 101.92223229202425, 1535.5665673917474 103.13271713931144, 1617.3979181258362 106.96727733521674 M1465.840916335737 106.13936004151292 C1502.133372303798 103.29173453418161, 1539.9579133710224 104.75724982715533, 1614.0519022976857 105.68937384728869 M1615.8848339172653 102.9738668965359 C1614.8867947012864 116.26922788175149, 1612.9575000599789 126.84442274372303, 1616.4340349687811 154.73087423257363 M1614.4990226909451 106.06431557323094 C1615.0107780494225 122.40256928543984, 1614.4179246571682 137.191474644703, 1614.593470454521 155.1158879514332 M1615.0690508167156 156.37343289405646 C1583.8316896014624 153.44985576849982, 1549.1559327259336 154.95340906985345, 1466.9832370364782 155.79057321719264 M1616.0636939107928 156.03726100878285 C1576.3995959173556 156.46112281071402, 1537.5218176838882 156.8473333961713, 1464.8302467784702 155.02479630244943 M1467.3037151544315 153.8902142567072 C1465.321279998241 136.26356253481887, 1466.0167848604776 119.06067098772058, 1463.0086310710808 106.18297722970428 M1463.920272067999 155.63829078977375 C1464.5435278979487 141.04655082090508, 1465.1615246436224 128.46581153678005, 1465.160582266746 105.64457812548423" stroke="#1e2430" stroke-width="2" fill="none"></path></g></g><g><text x="1540" y="130" font-size="15" fill="#1e2430" text-anchor="middle" font-weight="normal">MongoDB</text></g><g><path d="M1539.881244642851 156.50607829704177 C1542.9747633138177 598.0373551401395, 1541.9326254418543 1039.5268220069365, 1540.4394145645701 1299.4111810249196 M1539.701852902941 156.23069797521003 C1538.8724236329595 463.1662370248058, 1538.922224090594 770.2011130570507, 1540.1817422736294 1300.3678268013578" stroke="#1e2430" stroke-width="1.5" fill="none" stroke-dasharray="4 6"></path></g><text x="212.14285714285714" y="180" font-size="13" fill="#6c4fc4" text-anchor="middle" font-weight="bold">1.</text><g><g><path d="M109.6022073886787 208.31603825884758 C176.4851385333893 207.9311092620399, 240.7353318435654 209.96444829044964, 315.1689192862111 210.95805047354338 M110.69829613900527 210.4401533118068 C159.4227330961304 209.4856340832342, 209.2091705150953 208.75167886876088, 315.11523042132154 210.79176937711375" stroke="#2f5fae" stroke-width="2" fill="none"></path></g><g><path d="M 314.2857142857143 210 L 304.38079615983486 214.78462087522354 L 304.38079615983486 205.21537912477646 Z" fill="#2f5fae" stroke="#2f5fae"></path></g><text x="212.14285714285714" y="204" font-size="13.5" fill="#2f5fae" text-anchor="middle" font-weight="normal">types question, hits Send</text></g><text x="416.42857142857144" y="258" font-size="13" fill="#6c4fc4" text-anchor="middle" font-weight="bold">2.</text><g><g><path d="M313.59628446554353 287.98783773182726 C379.6835949472195 290.11682511226275, 447.4926728755205 287.6995496628193, 518.4928384119853 286.62014290022006 M314.3609721049728 288.76968905010546 C380.7272356093602 288.3378548762232, 446.5242998896408 287.9662312318304, 518.584393771511 288.22293511926694" stroke="#6c4fc4" stroke-width="2" fill="none"></path></g><g><path d="M 518.5714285714286 288 L 508.66651044554914 292.78462087522354 L 508.66651044554914 283.21537912477646 Z" fill="#6c4fc4" stroke="#6c4fc4"></path></g><text x="416.42857142857144" y="282" font-size="13.5" fill="#6c4fc4" text-anchor="middle" font-weight="normal">POST /rag  { question }</text></g><text x="620.7142857142858" y="336" font-size="13" fill="#6c4fc4" text-anchor="middle" font-weight="bold">3.</text><g><g><path d="M517.9741604894949 364.9938236319499 C596.8752562190367 364.1071974598477, 672.9491984890407 363.8759365218649, 722.6162083901518 367.0060586194116 M518.727613834751 366.29104791654134 C569.8373574107527 367.65688834910355, 622.3995871208731 366.95476114405676, 722.6107296661999 366.6700369234977" stroke="#0f8f78" stroke-width="2" fill="none"></path></g><g><path d="M 722.8571428571429 366 L 712.9522247312634 370.78462087522354 L 712.9522247312634 361.21537912477646 Z" fill="#0f8f78" stroke="#0f8f78"></path></g><text x="620.7142857142858" y="360" font-size="13.5" fill="#0f8f78" text-anchor="middle" font-weight="normal">dense_search(question)</text></g><text x="620.7142857142858" y="414" font-size="13" fill="#6c4fc4" text-anchor="middle" font-weight="bold">4.</text><g><g><path d="M724.7149723057328 445.08568640189293 C662.0328556068956 444.04033111798907, 601.0306894855098 443.2133570624855, 519.7835410617079 442.3439462368438 M722.4187049500373 443.2650915638359 C649.6970196435453 443.91823911262355, 577.310150445171 444.3507690599823, 518.7883376290187 443.4630884172136" stroke="#0f8f78" stroke-width="2" fill="none" stroke-dasharray="6 5"></path></g><g><path d="M 518.5714285714286 444 L 528.476346697308 439.21537912477646 L 528.476346697308 448.78462087522354 Z" fill="#0f8f78" stroke="#0f8f78"></path></g><text x="620.7142857142858" y="438" font-size="13.5" fill="#0f8f78" text-anchor="middle" font-weight="normal">top-k dense matches</text></g><text x="722.8571428571429" y="492" font-size="13" fill="#6c4fc4" text-anchor="middle" font-weight="bold">5.</text><g><g><path d="M517.4632521482822 522.4104027796028 C671.1673509377825 524.1898800983878, 826.3039379143967 524.6709017854898, 926.457354859021 521.2432283862189 M518.8883824453117 522.2920311456234 C677.5246113989665 521.7864384494242, 836.3117906605928 521.7822805351267, 927.0255555168368 521.9019412881144" stroke="#0f8f78" stroke-width="2" fill="none"></path></g><g><path d="M 927.1428571428571 522 L 917.2379390169776 526.7846208752235 L 917.2379390169776 517.2153791247765 Z" fill="#0f8f78" stroke="#0f8f78"></path></g><text x="722.8571428571429" y="516" font-size="13.5" fill="#0f8f78" text-anchor="middle" font-weight="normal">sparse_search(question)</text></g><text x="722.8571428571429" y="570" font-size="13" fill="#6c4fc4" text-anchor="middle" font-weight="bold">6.</text><g><g><path d="M927.5550153085628 599.4199160972527 C800.6845635869387 601.131678169342, 672.5577397747084 601.439441545991, 517.410086792223 600.607551297773 M927.5424226301243 600.4646808822547 C766.4223059685669 601.3366370071471, 606.0477687743893 601.0309698066208, 518.4782264597118 600.0481182261301" stroke="#0f8f78" stroke-width="2" fill="none" stroke-dasharray="6 5"></path></g><g><path d="M 518.5714285714286 600 L 528.476346697308 595.2153791247765 L 528.476346697308 604.7846208752235 Z" fill="#0f8f78" stroke="#0f8f78"></path></g><text x="722.8571428571429" y="594" font-size="13.5" fill="#0f8f78" text-anchor="middle" font-weight="normal">top-k sparse matches</text></g><text x="608.5714285714286" y="648" font-size="13" fill="#6c4fc4" text-anchor="middle" font-weight="bold">7.</text><g><path d="M519.7153471218038 677.8257032365858 C531.2502091784552 679.426903566931, 576.0004773980893 682.43094870336, 587.6633567428041 686.7172366151068 C599.326236087519 691.0035245268537, 601.20518868957 699.2149440630959, 589.692623190093 703.5434307070669 C578.1800576906159 707.871917351038, 530.3252798274926 711.297621369709, 518.5879637459415 712.6881564789329 M518.0257752842502 676.6635707947444 C529.2775128740552 678.4431646527145, 576.2334164011671 683.2503641303397, 587.7032060362868 687.8966052723706 C599.1729956714065 692.5428464144015, 598.6666553828671 700.6203380630313, 586.8445130949682 704.5410176469296 C575.0223708070693 708.4616972308279, 528.3047987555422 709.8608994232973, 516.7703523088933 711.4206827757603" stroke="#0f8f78" stroke-width="2" fill="none"></path></g><text x="608.5714285714286" y="698" font-size="13" fill="#0f8f78" text-anchor="start" font-weight="normal">RRF fuse(dense, sparse)</text><text x="825" y="736" font-size="13" fill="#6c4fc4" text-anchor="middle" font-weight="bold">8.</text><g><g><path d="M518.7082842096231 765.892426715675 C758.6809824309837 765.2648736922299, 998.5499990603489 764.3375419770546, 1131.4771809531192 765.5649910640686 M518.6407030071682 765.7194485217655 C679.1569747073335 764.7192420813728, 839.4690098573291 764.296051319893, 1131.743328053365 765.8132825178593" stroke="#0f8f78" stroke-width="2" fill="none"></path></g><g><path d="M 1131.4285714285713 766 L 1121.5236533026919 770.7846208752235 L 1121.5236533026919 761.2153791247765 Z" fill="#0f8f78" stroke="#0f8f78"></path></g><text x="825" y="760" font-size="13.5" fill="#0f8f78" text-anchor="middle" font-weight="normal">rerank(query, candidates)</text></g><text x="825" y="814" font-size="13" fill="#6c4fc4" text-anchor="middle" font-weight="bold">9.</text><g><g><path d="M1131.1615166024408 844.1908848762666 C940.9811397905626 841.6694496647048, 752.0458186952068 841.1574354402007, 518.6475948915235 843.3019891361282 M1131.1168661447916 843.7824023677854 C993.7712089429097 847.1588757931547, 856.4353353721611 846.9370845915896, 518.5204656724447 843.8854375743521" stroke="#0f8f78" stroke-width="2" fill="none" stroke-dasharray="6 5"></path></g><g><path d="M 518.5714285714286 844 L 528.476346697308 839.2153791247765 L 528.476346697308 848.7846208752235 Z" fill="#0f8f78" stroke="#0f8f78"></path></g><text x="825" y="838" font-size="13.5" fill="#0f8f78" text-anchor="middle" font-weight="normal">reranked top-k context</text></g><text x="927.1428571428571" y="892" font-size="13" fill="#6c4fc4" text-anchor="middle" font-weight="bold">10.</text><g><g><path d="M518.740994891303 922.7313247424456 C740.0481865471536 921.2942953665619, 960.556590067013 921.2972049967182, 1335.0596585392 921.9261319669891 M518.5687511565425 922.3060644415672 C699.8163908968381 920.6161131689461, 880.9034973673907 920.1022373533796, 1336.105076514368 922.210952128512" stroke="#2f5fae" stroke-width="2" fill="none"></path></g><g><path d="M 1335.7142857142858 922 L 1325.8093675884063 926.7846208752235 L 1325.8093675884063 917.2153791247765 Z" fill="#2f5fae" stroke="#2f5fae"></path></g><text x="927.1428571428571" y="916" font-size="13.5" fill="#2f5fae" text-anchor="middle" font-weight="normal">chat.completions.create(prompt)</text></g><text x="927.1428571428571" y="970" font-size="13" fill="#6c4fc4" text-anchor="middle" font-weight="bold">11.</text><g><g><path d="M1336.4201971132543 1000.0754545935919 C1086.7843190454025 1001.1357757652453, 838.7187829304138 1001.0902802514223, 517.8612517788835 1000.0716012823258 M1335.4560158386594 999.862591905902 C1091.926766303638 999.8997523363777, 849.16116466743 999.611933327776, 518.9444349220362 999.7209602181343" stroke="#2f5fae" stroke-width="2" fill="none" stroke-dasharray="6 5"></path></g><g><path d="M 518.5714285714286 1000 L 528.476346697308 995.2153791247765 L 528.476346697308 1004.7846208752235 Z" fill="#2f5fae" stroke="#2f5fae"></path></g><text x="927.1428571428571" y="994" font-size="13.5" fill="#2f5fae" text-anchor="middle" font-weight="normal">generated answer</text></g><text x="1029.2857142857142" y="1048" font-size="13" fill="#6c4fc4" text-anchor="middle" font-weight="bold">12.</text><g><g><path d="M518.892044613338 1077.26214590076 C829.6694646480825 1081.3032768850144, 1141.9271675637347 1081.4171915264485, 1539.3500128532626 1077.9399624547993 M518.5873092945997 1077.7631984565162 C915.8572093389546 1076.940847083926, 1313.6941434331354 1077.0495583625686, 1540.1287998650266 1077.6693647405818" stroke="#b8790f" stroke-width="2" fill="none"></path></g><g><path d="M 1540 1078 L 1530.0950818741205 1082.7846208752235 L 1530.0950818741205 1073.2153791247765 Z" fill="#b8790f" stroke="#b8790f"></path></g><text x="1029.2857142857142" y="1072" font-size="13.5" fill="#b8790f" text-anchor="middle" font-weight="normal">insert_one(question, answer)</text></g><text x="416.42857142857144" y="1126" font-size="13" fill="#6c4fc4" text-anchor="middle" font-weight="bold">13.</text><g><g><path d="M518.5302325648126 1154.4472926802089 C471.87470143321644 1153.1918773613143, 421.7255135327888 1152.8490647738474, 315.0749678244973 1154.1977159057733 M518.3051166832265 1155.987696359185 C475.0964947086127 1157.4327193972765, 431.0378720806913 1157.4424933596542, 315.19178507412687 1156.3751430690534" stroke="#6c4fc4" stroke-width="2" fill="none" stroke-dasharray="6 5"></path></g><g><path d="M 314.2857142857143 1156 L 324.1906324115937 1151.2153791247765 L 324.1906324115937 1160.7846208752235 Z" fill="#6c4fc4" stroke="#6c4fc4"></path></g><text x="416.42857142857144" y="1150" font-size="13.5" fill="#6c4fc4" text-anchor="middle" font-weight="normal">{ response }</text></g><text x="212.14285714285714" y="1204" font-size="13" fill="#6c4fc4" text-anchor="middle" font-weight="bold">14.</text><g><g><path d="M313.82695052020824 1233.0716853925483 C254.00415195491738 1235.910192379317, 193.95753442062502 1235.1735730648916, 110.82006456804217 1234.423859518344 M315.1765804586311 1233.5838780128463 C254.8365183051996 1232.1393085114178, 193.89031962664168 1233.0921987980528, 110.0860486966024 1234.92857004116" stroke="#2f5fae" stroke-width="2" fill="none" stroke-dasharray="6 5"></path></g><g><path d="M 110 1234 L 119.90491812587945 1229.2153791247765 L 119.90491812587945 1238.7846208752235 Z" fill="#2f5fae" stroke="#2f5fae"></path></g><text x="212.14285714285714" y="1228" font-size="13.5" fill="#2f5fae" text-anchor="middle" font-weight="normal">renders MedAssist reply bubble</text></g></svg>